<mxfile host="Electron" agent="Mozilla/5.0 (Macintosh; Intel Mac OS X 10_15_7) AppleWebKit/537.36 (KHTML, like Gecko) draw.io/24.7.17 Chrome/128.0.6613.36 Electron/32.0.1 Safari/537.36" version="24.7.17">
  <diagram name="Page-1" id="1WE568LWMVHtuKM3JDja">
    <mxGraphModel dx="185" dy="705" grid="1" gridSize="10" guides="1" tooltips="1" connect="1" arrows="1" fold="1" page="1" pageScale="1" pageWidth="827" pageHeight="1169" background="none" math="1" shadow="0">
      <root>
        <mxCell id="0" />
        <mxCell id="1" parent="0" />
        <mxCell id="pY1jZxHgJ3CI3KXNFTr0-153" value="$$...$$" style="edgeStyle=orthogonalEdgeStyle;rounded=0;orthogonalLoop=1;jettySize=auto;html=1;entryX=0.5;entryY=1;entryDx=0;entryDy=0;endArrow=none;endFill=0;fontSize=18;" parent="1" source="pY1jZxHgJ3CI3KXNFTr0-145" target="pY1jZxHgJ3CI3KXNFTr0-152" edge="1">
          <mxGeometry x="-0.2851" relative="1" as="geometry">
            <mxPoint as="offset" />
          </mxGeometry>
        </mxCell>
        <mxCell id="pY1jZxHgJ3CI3KXNFTr0-70" value="" style="group" parent="1" vertex="1" connectable="0">
          <mxGeometry x="2080" y="120" width="70" height="80" as="geometry" />
        </mxCell>
        <mxCell id="pY1jZxHgJ3CI3KXNFTr0-71" value="" style="rounded=0;whiteSpace=wrap;html=1;fillColor=#f8cecc;strokeColor=#b85450;" parent="pY1jZxHgJ3CI3KXNFTr0-70" vertex="1">
          <mxGeometry width="10" height="80" as="geometry" />
        </mxCell>
        <mxCell id="pY1jZxHgJ3CI3KXNFTr0-72" value="" style="rounded=0;whiteSpace=wrap;html=1;fillColor=#f8cecc;strokeColor=#b85450;" parent="pY1jZxHgJ3CI3KXNFTr0-70" vertex="1">
          <mxGeometry x="10" y="10" width="10" height="60" as="geometry" />
        </mxCell>
        <mxCell id="pY1jZxHgJ3CI3KXNFTr0-73" value="" style="rounded=0;whiteSpace=wrap;html=1;fillColor=#f8cecc;strokeColor=#b85450;" parent="pY1jZxHgJ3CI3KXNFTr0-70" vertex="1">
          <mxGeometry x="20" y="20" width="10" height="40" as="geometry" />
        </mxCell>
        <mxCell id="pY1jZxHgJ3CI3KXNFTr0-74" value="" style="rounded=0;whiteSpace=wrap;html=1;fillColor=#f8cecc;strokeColor=#b85450;" parent="pY1jZxHgJ3CI3KXNFTr0-70" vertex="1">
          <mxGeometry x="30" y="30" width="10" height="20" as="geometry" />
        </mxCell>
        <mxCell id="pY1jZxHgJ3CI3KXNFTr0-75" value="" style="rounded=0;whiteSpace=wrap;html=1;fillColor=#f8cecc;strokeColor=#b85450;" parent="pY1jZxHgJ3CI3KXNFTr0-70" vertex="1">
          <mxGeometry x="40" y="20" width="10" height="40" as="geometry" />
        </mxCell>
        <mxCell id="pY1jZxHgJ3CI3KXNFTr0-76" value="" style="rounded=0;whiteSpace=wrap;html=1;fillColor=#f8cecc;strokeColor=#b85450;" parent="pY1jZxHgJ3CI3KXNFTr0-70" vertex="1">
          <mxGeometry x="50" y="10" width="10" height="60" as="geometry" />
        </mxCell>
        <mxCell id="pY1jZxHgJ3CI3KXNFTr0-77" value="" style="rounded=0;whiteSpace=wrap;html=1;fillColor=#f8cecc;strokeColor=#b85450;" parent="pY1jZxHgJ3CI3KXNFTr0-70" vertex="1">
          <mxGeometry x="60" width="10" height="80" as="geometry" />
        </mxCell>
        <mxCell id="pY1jZxHgJ3CI3KXNFTr0-83" value="" style="group" parent="1" vertex="1" connectable="0">
          <mxGeometry x="2320" y="120" width="70" height="80" as="geometry" />
        </mxCell>
        <mxCell id="pY1jZxHgJ3CI3KXNFTr0-84" value="" style="rounded=0;whiteSpace=wrap;html=1;fillColor=#f8cecc;strokeColor=#b85450;" parent="pY1jZxHgJ3CI3KXNFTr0-83" vertex="1">
          <mxGeometry width="10" height="80" as="geometry" />
        </mxCell>
        <mxCell id="pY1jZxHgJ3CI3KXNFTr0-85" value="" style="rounded=0;whiteSpace=wrap;html=1;fillColor=#f8cecc;strokeColor=#b85450;" parent="pY1jZxHgJ3CI3KXNFTr0-83" vertex="1">
          <mxGeometry x="10" y="10" width="10" height="60" as="geometry" />
        </mxCell>
        <mxCell id="pY1jZxHgJ3CI3KXNFTr0-86" value="" style="rounded=0;whiteSpace=wrap;html=1;fillColor=#f8cecc;strokeColor=#b85450;" parent="pY1jZxHgJ3CI3KXNFTr0-83" vertex="1">
          <mxGeometry x="20" y="20" width="10" height="40" as="geometry" />
        </mxCell>
        <mxCell id="pY1jZxHgJ3CI3KXNFTr0-87" value="" style="rounded=0;whiteSpace=wrap;html=1;fillColor=#f8cecc;strokeColor=#b85450;" parent="pY1jZxHgJ3CI3KXNFTr0-83" vertex="1">
          <mxGeometry x="30" y="30" width="10" height="20" as="geometry" />
        </mxCell>
        <mxCell id="pY1jZxHgJ3CI3KXNFTr0-88" value="" style="rounded=0;whiteSpace=wrap;html=1;fillColor=#f8cecc;strokeColor=#b85450;" parent="pY1jZxHgJ3CI3KXNFTr0-83" vertex="1">
          <mxGeometry x="40" y="20" width="10" height="40" as="geometry" />
        </mxCell>
        <mxCell id="pY1jZxHgJ3CI3KXNFTr0-89" value="" style="rounded=0;whiteSpace=wrap;html=1;fillColor=#f8cecc;strokeColor=#b85450;" parent="pY1jZxHgJ3CI3KXNFTr0-83" vertex="1">
          <mxGeometry x="50" y="10" width="10" height="60" as="geometry" />
        </mxCell>
        <mxCell id="pY1jZxHgJ3CI3KXNFTr0-90" value="" style="rounded=0;whiteSpace=wrap;html=1;fillColor=#f8cecc;strokeColor=#b85450;" parent="pY1jZxHgJ3CI3KXNFTr0-83" vertex="1">
          <mxGeometry x="60" width="10" height="80" as="geometry" />
        </mxCell>
        <mxCell id="pY1jZxHgJ3CI3KXNFTr0-92" value="&#xa;" style="group" parent="1" vertex="1" connectable="0">
          <mxGeometry x="1840" y="120" width="70" height="80" as="geometry" />
        </mxCell>
        <mxCell id="pY1jZxHgJ3CI3KXNFTr0-93" value="" style="rounded=0;whiteSpace=wrap;html=1;fillColor=#f8cecc;strokeColor=#b85450;" parent="pY1jZxHgJ3CI3KXNFTr0-92" vertex="1">
          <mxGeometry width="10" height="80" as="geometry" />
        </mxCell>
        <mxCell id="pY1jZxHgJ3CI3KXNFTr0-94" value="" style="rounded=0;whiteSpace=wrap;html=1;fillColor=#f8cecc;strokeColor=#b85450;" parent="pY1jZxHgJ3CI3KXNFTr0-92" vertex="1">
          <mxGeometry x="10" y="10" width="10" height="60" as="geometry" />
        </mxCell>
        <mxCell id="pY1jZxHgJ3CI3KXNFTr0-95" value="" style="rounded=0;whiteSpace=wrap;html=1;fillColor=#f8cecc;strokeColor=#b85450;" parent="pY1jZxHgJ3CI3KXNFTr0-92" vertex="1">
          <mxGeometry x="20" y="20" width="10" height="40" as="geometry" />
        </mxCell>
        <mxCell id="pY1jZxHgJ3CI3KXNFTr0-96" value="" style="rounded=0;whiteSpace=wrap;html=1;fillColor=#f8cecc;strokeColor=#b85450;" parent="pY1jZxHgJ3CI3KXNFTr0-92" vertex="1">
          <mxGeometry x="30" y="30" width="10" height="20" as="geometry" />
        </mxCell>
        <mxCell id="pY1jZxHgJ3CI3KXNFTr0-97" value="" style="rounded=0;whiteSpace=wrap;html=1;fillColor=#f8cecc;strokeColor=#b85450;" parent="pY1jZxHgJ3CI3KXNFTr0-92" vertex="1">
          <mxGeometry x="40" y="20" width="10" height="40" as="geometry" />
        </mxCell>
        <mxCell id="pY1jZxHgJ3CI3KXNFTr0-98" value="" style="rounded=0;whiteSpace=wrap;html=1;fillColor=#f8cecc;strokeColor=#b85450;" parent="pY1jZxHgJ3CI3KXNFTr0-92" vertex="1">
          <mxGeometry x="50" y="10" width="10" height="60" as="geometry" />
        </mxCell>
        <mxCell id="pY1jZxHgJ3CI3KXNFTr0-99" value="" style="rounded=0;whiteSpace=wrap;html=1;fillColor=#f8cecc;strokeColor=#b85450;" parent="pY1jZxHgJ3CI3KXNFTr0-92" vertex="1">
          <mxGeometry x="60" width="10" height="80" as="geometry" />
        </mxCell>
        <mxCell id="pY1jZxHgJ3CI3KXNFTr0-134" style="edgeStyle=orthogonalEdgeStyle;rounded=0;orthogonalLoop=1;jettySize=auto;html=1;entryX=0.5;entryY=0;entryDx=0;entryDy=0;endArrow=none;endFill=0;" parent="1" source="pY1jZxHgJ3CI3KXNFTr0-102" target="pY1jZxHgJ3CI3KXNFTr0-133" edge="1">
          <mxGeometry relative="1" as="geometry">
            <Array as="points">
              <mxPoint x="1780" y="145" />
            </Array>
          </mxGeometry>
        </mxCell>
        <mxCell id="pY1jZxHgJ3CI3KXNFTr0-102" value="$$\epsilon_{1}$$" style="text;html=1;align=center;verticalAlign=middle;whiteSpace=wrap;rounded=0;fontSize=18;" parent="1" vertex="1">
          <mxGeometry x="1720" y="115" width="30" height="30" as="geometry" />
        </mxCell>
        <mxCell id="pY1jZxHgJ3CI3KXNFTr0-147" value="" style="edgeStyle=orthogonalEdgeStyle;rounded=0;orthogonalLoop=1;jettySize=auto;html=1;entryX=0.5;entryY=0;entryDx=0;entryDy=0;endArrow=none;endFill=0;labelBackgroundColor=none;" parent="1" source="pY1jZxHgJ3CI3KXNFTr0-104" target="pY1jZxHgJ3CI3KXNFTr0-142" edge="1">
          <mxGeometry relative="1" as="geometry" />
        </mxCell>
        <mxCell id="pY1jZxHgJ3CI3KXNFTr0-275" value="" style="edgeStyle=orthogonalEdgeStyle;rounded=0;orthogonalLoop=1;jettySize=auto;html=1;endArrow=none;endFill=0;" parent="1" source="pY1jZxHgJ3CI3KXNFTr0-104" target="pY1jZxHgJ3CI3KXNFTr0-142" edge="1">
          <mxGeometry relative="1" as="geometry" />
        </mxCell>
        <mxCell id="pY1jZxHgJ3CI3KXNFTr0-104" value="$$\epsilon_{t}$$" style="text;html=1;align=center;verticalAlign=middle;whiteSpace=wrap;rounded=0;fontSize=18;" parent="1" vertex="1">
          <mxGeometry x="1970" y="115" width="30" height="30" as="geometry" />
        </mxCell>
        <mxCell id="pY1jZxHgJ3CI3KXNFTr0-106" value="$$\mathcal{L}_{T}$$" style="edgeStyle=orthogonalEdgeStyle;rounded=0;orthogonalLoop=1;jettySize=auto;html=1;entryX=0;entryY=0.5;entryDx=0;entryDy=0;fontSize=14;strokeColor=#FF3333;startArrow=classic;startFill=1;exitX=0.5;exitY=0;exitDx=0;exitDy=0;" parent="1" source="pY1jZxHgJ3CI3KXNFTr0-107" target="pY1jZxHgJ3CI3KXNFTr0-115" edge="1">
          <mxGeometry x="-0.0013" relative="1" as="geometry">
            <Array as="points">
              <mxPoint x="2215" y="80" />
            </Array>
            <mxPoint as="offset" />
          </mxGeometry>
        </mxCell>
        <mxCell id="pY1jZxHgJ3CI3KXNFTr0-309" style="edgeStyle=orthogonalEdgeStyle;rounded=0;orthogonalLoop=1;jettySize=auto;html=1;entryX=0.5;entryY=0;entryDx=0;entryDy=0;endArrow=none;endFill=0;" parent="1" source="pY1jZxHgJ3CI3KXNFTr0-107" target="pY1jZxHgJ3CI3KXNFTr0-152" edge="1">
          <mxGeometry relative="1" as="geometry" />
        </mxCell>
        <mxCell id="pY1jZxHgJ3CI3KXNFTr0-107" value="$$\epsilon_{T}$$" style="text;html=1;align=center;verticalAlign=middle;whiteSpace=wrap;rounded=0;fontSize=18;rotation=0;spacingTop=0;spacingRight=8;" parent="1" vertex="1">
          <mxGeometry x="2200" y="115" width="30" height="30" as="geometry" />
        </mxCell>
        <mxCell id="pY1jZxHgJ3CI3KXNFTr0-108" value="&lt;span style=&quot;font-size: 14px;&quot;&gt;$$\mathcal{L}_{1}$$&lt;/span&gt;" style="edgeStyle=orthogonalEdgeStyle;rounded=0;orthogonalLoop=1;jettySize=auto;html=1;startArrow=classic;startFill=1;strokeColor=#FF3333;" parent="1" source="pY1jZxHgJ3CI3KXNFTr0-109" target="pY1jZxHgJ3CI3KXNFTr0-102" edge="1">
          <mxGeometry relative="1" as="geometry" />
        </mxCell>
        <mxCell id="pY1jZxHgJ3CI3KXNFTr0-109" value="$$\hat{\epsilon_{1}}$$" style="text;html=1;align=center;verticalAlign=middle;whiteSpace=wrap;rounded=0;fontSize=18;" parent="1" vertex="1">
          <mxGeometry x="1920" y="65" width="35" height="30" as="geometry" />
        </mxCell>
        <mxCell id="pY1jZxHgJ3CI3KXNFTr0-112" value="&lt;span style=&quot;font-size: 14px;&quot;&gt;$$\mathcal{L}_t$$&lt;/span&gt;" style="edgeStyle=orthogonalEdgeStyle;rounded=0;orthogonalLoop=1;jettySize=auto;html=1;strokeColor=#FF0000;startArrow=classic;startFill=1;" parent="1" source="pY1jZxHgJ3CI3KXNFTr0-113" target="pY1jZxHgJ3CI3KXNFTr0-104" edge="1">
          <mxGeometry relative="1" as="geometry" />
        </mxCell>
        <mxCell id="pY1jZxHgJ3CI3KXNFTr0-113" value="$$\hat{\epsilon_{t}}$$" style="text;html=1;align=center;verticalAlign=middle;whiteSpace=wrap;rounded=0;fontSize=18;" parent="1" vertex="1">
          <mxGeometry x="2159.25" y="65" width="35" height="30" as="geometry" />
        </mxCell>
        <mxCell id="pY1jZxHgJ3CI3KXNFTr0-115" value="$$\hat{\epsilon_{T}}$$" style="text;html=1;align=center;verticalAlign=middle;whiteSpace=wrap;rounded=0;fontSize=18;" parent="1" vertex="1">
          <mxGeometry x="2394.24" y="65" width="35" height="30" as="geometry" />
        </mxCell>
        <mxCell id="pY1jZxHgJ3CI3KXNFTr0-118" value="&lt;font style=&quot;font-size: 16px;&quot;&gt;$$q(\mathbf{x}_t \vert \mathbf{x}_{t-1}) = \mathcal{N}(\mathbf{x}_t; \sqrt{1 - \beta_t} \mathbf{x}_{t-1}, \beta_t\mathbf{I})$$&lt;/font&gt;" style="endArrow=classic;html=1;rounded=0;strokeWidth=2;spacingTop=2;spacingLeft=2;spacingBottom=2;spacingRight=2;labelBackgroundColor=default;labelBorderColor=none;" parent="1" edge="1">
          <mxGeometry width="50" height="50" relative="1" as="geometry">
            <mxPoint x="1725" y="301" as="sourcePoint" />
            <mxPoint x="2415" y="300" as="targetPoint" />
            <mxPoint as="offset" />
          </mxGeometry>
        </mxCell>
        <mxCell id="pY1jZxHgJ3CI3KXNFTr0-119" value="&lt;font style=&quot;font-size: 16px;&quot;&gt;$$p_\theta(\mathbf{x}_{t-1} \vert \mathbf{x}_t) = \mathcal{N}(\mathbf{x}_{t-1}; \mu_\theta(\mathbf{x}_t, t), \boldsymbol{\Sigma}_\theta(\mathbf{x}_t, t))$$&lt;/font&gt;" style="endArrow=none;html=1;rounded=0;strokeWidth=2;spacingTop=0;spacingLeft=2;spacingBottom=0;spacingRight=2;startArrow=classic;startFill=1;endFill=0;labelBackgroundColor=default;labelBorderColor=none;" parent="1" edge="1">
          <mxGeometry x="0.0019" width="50" height="50" relative="1" as="geometry">
            <mxPoint x="1725" y="350" as="sourcePoint" />
            <mxPoint x="2415" y="350" as="targetPoint" />
            <mxPoint as="offset" />
          </mxGeometry>
        </mxCell>
        <mxCell id="pY1jZxHgJ3CI3KXNFTr0-131" style="edgeStyle=orthogonalEdgeStyle;rounded=0;orthogonalLoop=1;jettySize=auto;html=1;endArrow=none;endFill=0;" parent="1" source="pY1jZxHgJ3CI3KXNFTr0-123" edge="1">
          <mxGeometry relative="1" as="geometry">
            <mxPoint x="1780" y="180" as="targetPoint" />
          </mxGeometry>
        </mxCell>
        <mxCell id="pY1jZxHgJ3CI3KXNFTr0-123" value="$$\mathbf{x}_{0}$$" style="ellipse;whiteSpace=wrap;html=1;aspect=fixed;fontSize=18;fillColor=default;" parent="1" vertex="1">
          <mxGeometry x="1720" y="240" width="40" height="40" as="geometry" />
        </mxCell>
        <mxCell id="pY1jZxHgJ3CI3KXNFTr0-138" style="edgeStyle=orthogonalEdgeStyle;rounded=0;orthogonalLoop=1;jettySize=auto;html=1;endArrow=none;endFill=0;" parent="1" edge="1">
          <mxGeometry relative="1" as="geometry">
            <mxPoint x="1810" y="260" as="targetPoint" />
            <mxPoint x="1779.9999634769238" y="179.99702702702712" as="sourcePoint" />
            <Array as="points">
              <mxPoint x="1810" y="180" />
            </Array>
          </mxGeometry>
        </mxCell>
        <mxCell id="pY1jZxHgJ3CI3KXNFTr0-305" style="edgeStyle=orthogonalEdgeStyle;rounded=0;orthogonalLoop=1;jettySize=auto;html=1;entryX=0;entryY=0.75;entryDx=0;entryDy=0;" parent="1" source="pY1jZxHgJ3CI3KXNFTr0-133" target="pY1jZxHgJ3CI3KXNFTr0-93" edge="1">
          <mxGeometry relative="1" as="geometry" />
        </mxCell>
        <mxCell id="pY1jZxHgJ3CI3KXNFTr0-133" value="" style="shape=orEllipse;perimeter=ellipsePerimeter;whiteSpace=wrap;html=1;backgroundOutline=1;fontColor=default;fillColor=none;" parent="1" vertex="1">
          <mxGeometry x="1770" y="170" width="20" height="20" as="geometry" />
        </mxCell>
        <mxCell id="pY1jZxHgJ3CI3KXNFTr0-140" value="$$...$$" style="edgeStyle=orthogonalEdgeStyle;rounded=0;orthogonalLoop=1;jettySize=auto;html=1;endArrow=none;endFill=0;startArrow=classic;startFill=1;fontSize=18;" parent="1" source="pY1jZxHgJ3CI3KXNFTr0-139" edge="1">
          <mxGeometry relative="1" as="geometry">
            <mxPoint x="1810" y="260" as="targetPoint" />
          </mxGeometry>
        </mxCell>
        <mxCell id="pY1jZxHgJ3CI3KXNFTr0-146" style="edgeStyle=orthogonalEdgeStyle;rounded=0;orthogonalLoop=1;jettySize=auto;html=1;entryX=0.5;entryY=1;entryDx=0;entryDy=0;endArrow=none;endFill=0;" parent="1" source="pY1jZxHgJ3CI3KXNFTr0-139" target="pY1jZxHgJ3CI3KXNFTr0-142" edge="1">
          <mxGeometry relative="1" as="geometry" />
        </mxCell>
        <mxCell id="pY1jZxHgJ3CI3KXNFTr0-139" value="$$\mathbf{x}_{t-1}$$" style="ellipse;whiteSpace=wrap;html=1;aspect=fixed;fontSize=16;fillColor=default;" parent="1" vertex="1">
          <mxGeometry x="1960" y="240" width="40" height="40" as="geometry" />
        </mxCell>
        <mxCell id="pY1jZxHgJ3CI3KXNFTr0-149" style="edgeStyle=orthogonalEdgeStyle;rounded=0;orthogonalLoop=1;jettySize=auto;html=1;endArrow=none;endFill=0;" parent="1" source="pY1jZxHgJ3CI3KXNFTr0-142" edge="1">
          <mxGeometry relative="1" as="geometry">
            <mxPoint x="2050" y="260" as="targetPoint" />
          </mxGeometry>
        </mxCell>
        <mxCell id="pY1jZxHgJ3CI3KXNFTr0-300" style="edgeStyle=orthogonalEdgeStyle;rounded=0;orthogonalLoop=1;jettySize=auto;html=1;entryX=0;entryY=0.75;entryDx=0;entryDy=0;" parent="1" source="pY1jZxHgJ3CI3KXNFTr0-142" target="pY1jZxHgJ3CI3KXNFTr0-71" edge="1">
          <mxGeometry relative="1" as="geometry" />
        </mxCell>
        <mxCell id="pY1jZxHgJ3CI3KXNFTr0-142" value="" style="shape=orEllipse;perimeter=ellipsePerimeter;whiteSpace=wrap;html=1;backgroundOutline=1;fillColor=none;" parent="1" vertex="1">
          <mxGeometry x="2010.25" y="170" width="20" height="20" as="geometry" />
        </mxCell>
        <mxCell id="pY1jZxHgJ3CI3KXNFTr0-151" style="edgeStyle=orthogonalEdgeStyle;rounded=0;orthogonalLoop=1;jettySize=auto;html=1;endArrow=none;endFill=0;startArrow=classic;startFill=1;" parent="1" source="pY1jZxHgJ3CI3KXNFTr0-145" edge="1">
          <mxGeometry relative="1" as="geometry">
            <mxPoint x="2050" y="260" as="targetPoint" />
          </mxGeometry>
        </mxCell>
        <mxCell id="pY1jZxHgJ3CI3KXNFTr0-145" value="$$\mathbf{x}_{t}$$" style="ellipse;whiteSpace=wrap;html=1;aspect=fixed;fontSize=18;fillColor=default;" parent="1" vertex="1">
          <mxGeometry x="2119.25" y="240" width="40" height="40" as="geometry" />
        </mxCell>
        <mxCell id="pY1jZxHgJ3CI3KXNFTr0-150" value="$$\mathbf{x}_{T}$$" style="ellipse;whiteSpace=wrap;html=1;aspect=fixed;fontSize=18;fillColor=default;" parent="1" vertex="1">
          <mxGeometry x="2373" y="240" width="40" height="40" as="geometry" />
        </mxCell>
        <mxCell id="pY1jZxHgJ3CI3KXNFTr0-156" style="edgeStyle=orthogonalEdgeStyle;rounded=0;orthogonalLoop=1;jettySize=auto;html=1;" parent="1" source="pY1jZxHgJ3CI3KXNFTr0-152" edge="1">
          <mxGeometry relative="1" as="geometry">
            <mxPoint x="2319.25" y="180" as="targetPoint" />
          </mxGeometry>
        </mxCell>
        <mxCell id="pY1jZxHgJ3CI3KXNFTr0-160" style="edgeStyle=orthogonalEdgeStyle;rounded=0;orthogonalLoop=1;jettySize=auto;html=1;entryX=0;entryY=0.5;entryDx=0;entryDy=0;" parent="1" source="pY1jZxHgJ3CI3KXNFTr0-152" target="pY1jZxHgJ3CI3KXNFTr0-150" edge="1">
          <mxGeometry relative="1" as="geometry">
            <Array as="points">
              <mxPoint x="2287" y="180" />
              <mxPoint x="2287" y="260" />
            </Array>
          </mxGeometry>
        </mxCell>
        <mxCell id="pY1jZxHgJ3CI3KXNFTr0-152" value="" style="shape=orEllipse;perimeter=ellipsePerimeter;whiteSpace=wrap;html=1;backgroundOutline=1;fillColor=none;" parent="1" vertex="1">
          <mxGeometry x="2249.25" y="170" width="20" height="20" as="geometry" />
        </mxCell>
        <mxCell id="pY1jZxHgJ3CI3KXNFTr0-162" value="$$...$$" style="ellipse;whiteSpace=wrap;html=1;aspect=fixed;fontSize=18;strokeColor=none;fillColor=none;" parent="1" vertex="1">
          <mxGeometry x="2180" y="130" width="50" height="50" as="geometry" />
        </mxCell>
        <mxCell id="pY1jZxHgJ3CI3KXNFTr0-163" value="$$...$$" style="ellipse;whiteSpace=wrap;html=1;aspect=fixed;fontSize=18;strokeColor=none;fillColor=none;" parent="1" vertex="1">
          <mxGeometry x="1940" y="130" width="50" height="50" as="geometry" />
        </mxCell>
        <mxCell id="pY1jZxHgJ3CI3KXNFTr0-276" value="$$f_{\theta}(\mathbf{x}_0, t_1)$$" style="text;html=1;align=center;verticalAlign=middle;whiteSpace=wrap;rounded=0;fontSize=14;" parent="1" vertex="1">
          <mxGeometry x="1848" y="200" width="60" height="30" as="geometry" />
        </mxCell>
        <mxCell id="pY1jZxHgJ3CI3KXNFTr0-277" value="$$f_{\theta}(\mathbf{x}_{t-1}, t)$$" style="text;html=1;align=center;verticalAlign=middle;whiteSpace=wrap;rounded=0;fontSize=14;" parent="1" vertex="1">
          <mxGeometry x="2085" y="200" width="60" height="30" as="geometry" />
        </mxCell>
        <mxCell id="pY1jZxHgJ3CI3KXNFTr0-278" value="$$f_{\theta} (\mathbf{x}_{T-1}, T)$$" style="text;html=1;align=center;verticalAlign=middle;whiteSpace=wrap;rounded=0;fontSize=14;" parent="1" vertex="1">
          <mxGeometry x="2325" y="200" width="60" height="30" as="geometry" />
        </mxCell>
        <mxCell id="pY1jZxHgJ3CI3KXNFTr0-280" style="edgeStyle=orthogonalEdgeStyle;rounded=0;orthogonalLoop=1;jettySize=auto;html=1;entryX=0;entryY=0.25;entryDx=0;entryDy=0;" parent="1" source="pY1jZxHgJ3CI3KXNFTr0-279" target="pY1jZxHgJ3CI3KXNFTr0-93" edge="1">
          <mxGeometry relative="1" as="geometry" />
        </mxCell>
        <mxCell id="pY1jZxHgJ3CI3KXNFTr0-279" value="$$t_1$$" style="text;html=1;align=center;verticalAlign=middle;whiteSpace=wrap;rounded=0;fontSize=14;" parent="1" vertex="1">
          <mxGeometry x="1790" y="125" width="20" height="30" as="geometry" />
        </mxCell>
        <mxCell id="pY1jZxHgJ3CI3KXNFTr0-299" style="edgeStyle=orthogonalEdgeStyle;rounded=0;orthogonalLoop=1;jettySize=auto;html=1;entryX=0;entryY=0.25;entryDx=0;entryDy=0;" parent="1" source="pY1jZxHgJ3CI3KXNFTr0-281" target="pY1jZxHgJ3CI3KXNFTr0-71" edge="1">
          <mxGeometry relative="1" as="geometry" />
        </mxCell>
        <mxCell id="pY1jZxHgJ3CI3KXNFTr0-281" value="$$t$$" style="text;html=1;align=center;verticalAlign=middle;whiteSpace=wrap;rounded=0;fontSize=14;" parent="1" vertex="1">
          <mxGeometry x="2030" y="125" width="20" height="30" as="geometry" />
        </mxCell>
        <mxCell id="pY1jZxHgJ3CI3KXNFTr0-310" style="edgeStyle=orthogonalEdgeStyle;rounded=0;orthogonalLoop=1;jettySize=auto;html=1;entryX=0;entryY=0.25;entryDx=0;entryDy=0;" parent="1" source="pY1jZxHgJ3CI3KXNFTr0-284" target="pY1jZxHgJ3CI3KXNFTr0-84" edge="1">
          <mxGeometry relative="1" as="geometry" />
        </mxCell>
        <mxCell id="pY1jZxHgJ3CI3KXNFTr0-284" value="$$T$$" style="text;html=1;align=center;verticalAlign=middle;whiteSpace=wrap;rounded=0;fontSize=14;" parent="1" vertex="1">
          <mxGeometry x="2270" y="125" width="20" height="30" as="geometry" />
        </mxCell>
        <mxCell id="pY1jZxHgJ3CI3KXNFTr0-288" style="edgeStyle=orthogonalEdgeStyle;rounded=0;orthogonalLoop=1;jettySize=auto;html=1;entryX=0.5;entryY=1;entryDx=0;entryDy=0;" parent="1" source="pY1jZxHgJ3CI3KXNFTr0-90" edge="1">
          <mxGeometry relative="1" as="geometry">
            <mxPoint x="2410.5" y="95" as="targetPoint" />
          </mxGeometry>
        </mxCell>
        <mxCell id="pY1jZxHgJ3CI3KXNFTr0-289" style="edgeStyle=orthogonalEdgeStyle;rounded=0;orthogonalLoop=1;jettySize=auto;html=1;entryX=0.5;entryY=1;entryDx=0;entryDy=0;" parent="1" source="pY1jZxHgJ3CI3KXNFTr0-77" target="pY1jZxHgJ3CI3KXNFTr0-113" edge="1">
          <mxGeometry relative="1" as="geometry" />
        </mxCell>
        <mxCell id="pY1jZxHgJ3CI3KXNFTr0-290" style="edgeStyle=orthogonalEdgeStyle;rounded=0;orthogonalLoop=1;jettySize=auto;html=1;entryX=0.5;entryY=1;entryDx=0;entryDy=0;" parent="1" source="pY1jZxHgJ3CI3KXNFTr0-99" target="pY1jZxHgJ3CI3KXNFTr0-109" edge="1">
          <mxGeometry relative="1" as="geometry" />
        </mxCell>
      </root>
    </mxGraphModel>
  </diagram>
</mxfile>
